<svg xmlns="http://www.w3.org/2000/svg">

<symbol id="catshield" viewBox="0 0 512 512" overflow="visible">
<path d="M269.4 2.9C265.2 1 260.7 0 256 0s-9.2 1-13.4 2.9L54.3 82.8c-22 9.3-38.4 31-38.3 57.2c.5 99.2 41.3 280.7 213.6 363.2c16.7 8 36.1 8 52.8 0C454.7 420.7 495.5 239.2 496 140c.1-26.2-16.3-47.9-38.3-57.2L269.4 2.9zM160 154.4c0-5.8 4.7-10.4 10.4-10.4h.2c3.4 0 6.5 1.6 8.5 4.3l40 53.3c3 4 7.8 6.4 12.8 6.4h48c5 0 9.8-2.4 12.8-6.4l40-53.3c2-2.7 5.2-4.3 8.5-4.3h.2c5.8 0 10.4 4.7 10.4 10.4V272c0 53-43 96-96 96s-96-43-96-96V154.4zM216 288a16 16 0 1 0 0-32 16 16 0 1 0 0 32zm96-16a16 16 0 1 0 -32 0 16 16 0 1 0 32 0z"/>
</symbol>

<symbol id="cat-sitting" viewBox="0 0 576 512">
<path d="M320 192h17.1c22.1 38.3 63.5 64 110.9 64c11 0 21.8-1.4 32-4v4 32V480c0 17.7-14.3 32-32 32s-32-14.3-32-32V339.2L280 448h56c17.7 0 32 14.3 32 32s-14.3 32-32 32H192c-53 0-96-43-96-96V192.5c0-16.1-12-29.8-28-31.8l-7.9-1c-17.5-2.2-30-18.2-27.8-35.7s18.2-30 35.7-27.8l7.9 1c48 6 84.1 46.8 84.1 95.3v85.3c34.4-51.7 93.2-85.8 160-85.8zm160 26.5v0c-10 3.5-20.8 5.5-32 5.5c-28.4 0-54-12.4-71.6-32h0c-3.7-4.1-7-8.5-9.9-13.2C357.3 164 352 146.6 352 128v0V32 12 10.7C352 4.8 356.7 .1 362.6 0h.2c3.3 0 6.4 1.6 8.4 4.2l0 .1L384 21.3l27.2 36.3L416 64h64l4.8-6.4L512 21.3 524.8 4.3l0-.1c2-2.6 5.1-4.2 8.4-4.2h.2C539.3 .1 544 4.8 544 10.7V12 32v96c0 17.3-4.6 33.6-12.6 47.6c-11.3 19.8-29.6 35.2-51.4 42.9zM432 128a16 16 0 1 0 -32 0 16 16 0 1 0 32 0zm48 16a16 16 0 1 0 0-32 16 16 0 1 0 0 32z"/>
</symbol>

<symbol id="pawprint" viewBox="0 0 512 512">
<path d="M226.5 92.9c14.3 42.9-.3 86.2-32.6 96.8s-70.1-15.6-84.4-58.5s.3-86.2 32.6-96.8s70.1 15.6 84.4 58.5zM100.4 198.6c18.9 32.4 14.3 70.1-10.2 84.1s-59.7-.9-78.5-33.3S-2.7 179.3 21.8 165.3s59.7 .9 78.5 33.3zM69.2 401.2C121.6 259.9 214.7 224 256 224s134.4 35.9 186.8 177.2c3.6 9.7 5.2 20.1 5.2 30.5v1.6c0 25.8-20.9 46.7-46.7 46.7c-11.5 0-22.9-1.4-34-4.2l-88-22c-15.3-3.8-31.3-3.8-46.6 0l-88 22c-11.1 2.8-22.5 4.2-34 4.2C84.9 480 64 459.1 64 433.3v-1.6c0-10.4 1.6-20.8 5.2-30.5zM421.8 282.7c-24.5-14-29.1-51.7-10.2-84.1s54-47.3 78.5-33.3s29.1 51.7 10.2 84.1s-54 47.3-78.5 33.3zM310.1 189.7c-32.3-10.6-46.9-53.9-32.6-96.8s52.1-69.1 84.4-58.5s46.9 53.9 32.6 96.8s-52.1 69.1-84.4 58.5z"/>
</symbol>

<symbol id="user-circle" viewBox="0 0 512 512">
<path d="M399 384.2C376.9 345.8 335.4 320 288 320H224c-47.4 0-88.9 25.8-111 64.2c35.2 39.2 86.2 63.8 143 63.8s107.8-24.7 143-63.8zM0 256a256 256 0 1 1 512 0A256 256 0 1 1 0 256zm256 16a72 72 0 1 0 0-144 72 72 0 1 0 0 144z"/>
</symbol>

<symbol id="notification" viewBox="0 0 512 512">
<path d="M256 512A256 256 0 1 0 256 0a256 256 0 1 0 0 512zm0-384c13.3 0 24 10.7 24 24V264c0 13.3-10.7 24-24 24s-24-10.7-24-24V152c0-13.3 10.7-24 24-24zM224 352a32 32 0 1 1 64 0 32 32 0 1 1 -64 0z"/>
</symbol>

<symbol id="burger" viewBox="0 0 448 512">
<path d="M0 96C0 78.3 14.3 64 32 64H416c17.7 0 32 14.3 32 32s-14.3 32-32 32H32C14.3 128 0 113.7 0 96zM0 256c0-17.7 14.3-32 32-32H416c17.7 0 32 14.3 32 32s-14.3 32-32 32H32c-17.7 0-32-14.3-32-32zM448 416c0 17.7-14.3 32-32 32H32c-17.7 0-32-14.3-32-32s14.3-32 32-32H416c17.7 0 32 14.3 32 32z"/>
</symbol>

</svg>