<svg xmlns="http://www.w3.org/2000/svg">

<symbol id="catshield" viewBox="0 0 512 512" overflow="visible">
<path d="M269.4 2.9C265.2 1 260.7 0 256 0s-9.2 1-13.4 2.9L54.3 82.8c-22 9.3-38.4 31-38.3 57.2c.5 99.2 41.3 280.7 213.6 363.2c16.7 8 36.1 8 52.8 0C454.7 420.7 495.5 239.2 496 140c.1-26.2-16.3-47.9-38.3-57.2L269.4 2.9zM160 154.4c0-5.8 4.7-10.4 10.4-10.4h.2c3.4 0 6.5 1.6 8.5 4.3l40 53.3c3 4 7.8 6.4 12.8 6.4h48c5 0 9.8-2.4 12.8-6.4l40-53.3c2-2.7 5.2-4.3 8.5-4.3h.2c5.8 0 10.4 4.7 10.4 10.4V272c0 53-43 96-96 96s-96-43-96-96V154.4zM216 288a16 16 0 1 0 0-32 16 16 0 1 0 0 32zm96-16a16 16 0 1 0 -32 0 16 16 0 1 0 32 0z"/>
</symbol>

<symbol id="cat-sitting" viewBox="0 0 576 512">
<path d="M320 192h17.1c22.1 38.3 63.5 64 110.9 64c11 0 21.8-1.4 32-4v4 32V480c0 17.7-14.3 32-32 32s-32-14.3-32-32V339.2L280 448h56c17.7 0 32 14.3 32 32s-14.3 32-32 32H192c-53 0-96-43-96-96V192.5c0-16.1-12-29.8-28-31.8l-7.9-1c-17.5-2.2-30-18.2-27.8-35.7s18.2-30 35.7-27.8l7.9 1c48 6 84.1 46.8 84.1 95.3v85.3c34.4-51.7 93.2-85.8 160-85.8zm160 26.5v0c-10 3.5-20.8 5.5-32 5.5c-28.4 0-54-12.4-71.6-32h0c-3.7-4.1-7-8.5-9.9-13.2C357.3 164 352 146.6 352 128v0V32 12 10.7C352 4.8 356.7 .1 362.6 0h.2c3.3 0 6.4 1.6 8.4 4.2l0 .1L384 21.3l27.2 36.3L416 64h64l4.8-6.4L512 21.3 524.8 4.3l0-.1c2-2.6 5.1-4.2 8.4-4.2h.2C539.3 .1 544 4.8 544 10.7V12 32v96c0 17.3-4.6 33.6-12.6 47.6c-11.3 19.8-29.6 35.2-51.4 42.9zM432 128a16 16 0 1 0 -32 0 16 16 0 1 0 32 0zm48 16a16 16 0 1 0 0-32 16 16 0 1 0 0 32z"/>
</symbol>

<symbol id="pawprint" viewBox="0 0 512 512">
<path d="M226.5 92.9c14.3 42.9-.3 86.2-32.6 96.8s-70.1-15.6-84.4-58.5s.3-86.2 32.6-96.8s70.1 15.6 84.4 58.5zM100.4 198.6c18.9 32.4 14.3 70.1-10.2 84.1s-59.7-.9-78.5-33.3S-2.7 179.3 21.8 165.3s59.7 .9 78.5 33.3zM69.2 401.2C121.6 259.9 214.7 224 256 224s134.4 35.9 186.8 177.2c3.6 9.7 5.2 20.1 5.2 30.5v1.6c0 25.8-20.9 46.7-46.7 46.7c-11.5 0-22.9-1.4-34-4.2l-88-22c-15.3-3.8-31.3-3.8-46.6 0l-88 22c-11.1 2.8-22.5 4.2-34 4.2C84.9 480 64 459.1 64 433.3v-1.6c0-10.4 1.6-20.8 5.2-30.5zM421.8 282.7c-24.5-14-29.1-51.7-10.2-84.1s54-47.3 78.5-33.3s29.1 51.7 10.2 84.1s-54 47.3-78.5 33.3zM310.1 189.7c-32.3-10.6-46.9-53.9-32.6-96.8s52.1-69.1 84.4-58.5s46.9 53.9 32.6 96.8s-52.1 69.1-84.4 58.5z"/>
</symbol>

<symbol id="user-circle" viewBox="0 0 512 512">
<path d="M399 384.2C376.9 345.8 335.4 320 288 320H224c-47.4 0-88.9 25.8-111 64.2c35.2 39.2 86.2 63.8 143 63.8s107.8-24.7 143-63.8zM0 256a256 256 0 1 1 512 0A256 256 0 1 1 0 256zm256 16a72 72 0 1 0 0-144 72 72 0 1 0 0 144z"/>
</symbol>

<symbol id="notification" viewBox="0 0 512 512">
<path d="M256 512A256 256 0 1 0 256 0a256 256 0 1 0 0 512zm0-384c13.3 0 24 10.7 24 24V264c0 13.3-10.7 24-24 24s-24-10.7-24-24V152c0-13.3 10.7-24 24-24zM224 352a32 32 0 1 1 64 0 32 32 0 1 1 -64 0z"/>
</symbol>

<symbol id="burger" viewBox="0 0 448 512">
<path d="M0 96C0 78.3 14.3 64 32 64H416c17.7 0 32 14.3 32 32s-14.3 32-32 32H32C14.3 128 0 113.7 0 96zM0 256c0-17.7 14.3-32 32-32H416c17.7 0 32 14.3 32 32s-14.3 32-32 32H32c-17.7 0-32-14.3-32-32zM448 416c0 17.7-14.3 32-32 32H32c-17.7 0-32-14.3-32-32s14.3-32 32-32H416c17.7 0 32 14.3 32 32z"/>
</symbol>

<symbol id="plus-circle" viewBox="0 0 512 512">
<path d="M256 512A256 256 0 1 0 256 0a256 256 0 1 0 0 512zM232 344V280H168c-13.3 0-24-10.7-24-24s10.7-24 24-24h64V168c0-13.3 10.7-24 24-24s24 10.7 24 24v64h64c13.3 0 24 10.7 24 24s-10.7 24-24 24H280v64c0 13.3-10.7 24-24 24s-24-10.7-24-24z"/>
</symbol>

<symbol id="birthday-cake" viewBox="0 0 448 512">
<path d="M86.4 5.5L61.8 47.6C58 54.1 56 61.6 56 69.2V72c0 22.1 17.9 40 40 40s40-17.9 40-40V69.2c0-7.6-2-15-5.8-21.6L105.6 5.5C103.6 2.1 100 0 96 0s-7.6 2.1-9.6 5.5zm128 0L189.8 47.6c-3.8 6.5-5.8 14-5.8 21.6V72c0 22.1 17.9 40 40 40s40-17.9 40-40V69.2c0-7.6-2-15-5.8-21.6L233.6 5.5C231.6 2.1 228 0 224 0s-7.6 2.1-9.6 5.5zM317.8 47.6c-3.8 6.5-5.8 14-5.8 21.6V72c0 22.1 17.9 40 40 40s40-17.9 40-40V69.2c0-7.6-2-15-5.8-21.6L361.6 5.5C359.6 2.1 356 0 352 0s-7.6 2.1-9.6 5.5L317.8 47.6zM128 176c0-17.7-14.3-32-32-32s-32 14.3-32 32v48c-35.3 0-64 28.7-64 64v71c8.3 5.2 18.1 9 28.8 9c13.5 0 27.2-6.1 38.4-13.4c5.4-3.5 9.9-7.1 13-9.7c1.5-1.3 2.7-2.4 3.5-3.1c.4-.4 .7-.6 .8-.8l.1-.1 0 0 0 0s0 0 0 0s0 0 0 0c3.1-3.2 7.4-4.9 11.9-4.8s8.6 2.1 11.6 5.4l0 0 0 0 .1 .1c.1 .1 .4 .4 .7 .7c.7 .7 1.7 1.7 3.1 3c2.8 2.6 6.8 6.1 11.8 9.5c10.2 7.1 23 13.1 36.3 13.1s26.1-6 36.3-13.1c5-3.5 9-6.9 11.8-9.5c1.4-1.3 2.4-2.3 3.1-3c.3-.3 .6-.6 .7-.7l.1-.1c3-3.5 7.4-5.4 12-5.4s9 2 12 5.4l.1 .1c.1 .1 .4 .4 .7 .7c.7 .7 1.7 1.7 3.1 3c2.8 2.6 6.8 6.1 11.8 9.5c10.2 7.1 23 13.1 36.3 13.1s26.1-6 36.3-13.1c5-3.5 9-6.9 11.8-9.5c1.4-1.3 2.4-2.3 3.1-3c.3-.3 .6-.6 .7-.7l.1-.1c2.9-3.4 7.1-5.3 11.6-5.4s8.7 1.6 11.9 4.8l0 0 0 0 0 0 .1 .1c.2 .2 .4 .4 .8 .8c.8 .7 1.9 1.8 3.5 3.1c3.1 2.6 7.5 6.2 13 9.7c11.2 7.3 24.9 13.4 38.4 13.4c10.7 0 20.5-3.9 28.8-9V288c0-35.3-28.7-64-64-64V176c0-17.7-14.3-32-32-32s-32 14.3-32 32v48H256V176c0-17.7-14.3-32-32-32s-32 14.3-32 32v48H128V176zM448 394.6c-8.5 3.3-18.2 5.4-28.8 5.4c-22.5 0-42.4-9.9-55.8-18.6c-4.1-2.7-7.8-5.4-10.9-7.8c-2.8 2.4-6.1 5-9.8 7.5C329.8 390 310.6 400 288 400s-41.8-10-54.6-18.9c-3.5-2.4-6.7-4.9-9.4-7.2c-2.7 2.3-5.9 4.7-9.4 7.2C201.8 390 182.6 400 160 400s-41.8-10-54.6-18.9c-3.7-2.6-7-5.2-9.8-7.5c-3.1 2.4-6.8 5.1-10.9 7.8C71.2 390.1 51.3 400 28.8 400c-10.6 0-20.3-2.2-28.8-5.4V480c0 17.7 14.3 32 32 32H416c17.7 0 32-14.3 32-32V394.6z"/>
</symbol>

<symbol id="heart" viewBox="0 0 512 512">
<path d="M47.6 300.4L228.3 469.1c7.5 7 17.4 10.9 27.7 10.9s20.2-3.9 27.7-10.9L464.4 300.4c30.4-28.3 47.6-68 47.6-109.5v-5.8c0-69.9-50.5-129.5-119.4-141C347 36.5 300.6 51.4 268 84L256 96 244 84c-32.6-32.6-79-47.5-124.6-39.9C50.5 55.6 0 115.2 0 185.1v5.8c0 41.5 17.2 81.2 47.6 109.5z"/>
</symbol>

<symbol id="food-bowl" viewBox="0 0 512 512">
<path d="M0 192c0-35.3 28.7-64 64-64c.5 0 1.1 0 1.6 0C73 91.5 105.3 64 144 64c15 0 29 4.1 40.9 11.2C198.2 49.6 225.1 32 256 32s57.8 17.6 71.1 43.2C339 68.1 353 64 368 64c38.7 0 71 27.5 78.4 64c.5 0 1.1 0 1.6 0c35.3 0 64 28.7 64 64c0 11.7-3.1 22.6-8.6 32H8.6C3.1 214.6 0 203.7 0 192zm0 91.4C0 268.3 12.3 256 27.4 256H484.6c15.1 0 27.4 12.3 27.4 27.4c0 70.5-44.4 130.7-106.7 154.1L403.5 452c-2 16-15.6 28-31.8 28H140.2c-16.1 0-29.8-12-31.8-28l-1.8-14.4C44.4 414.1 0 353.9 0 283.4z"/>
</symbol>

<symbol id="medical" viewBox="0 0 576 512">
<path d="M64 32C28.7 32 0 60.7 0 96V416c0 35.3 28.7 64 64 64H96V32H64zm64 0V480H448V32H128zM512 480c35.3 0 64-28.7 64-64V96c0-35.3-28.7-64-64-64H480V480h32zM256 176c0-8.8 7.2-16 16-16h32c8.8 0 16 7.2 16 16v48h48c8.8 0 16 7.2 16 16v32c0 8.8-7.2 16-16 16H320v48c0 8.8-7.2 16-16 16H272c-8.8 0-16-7.2-16-16V288H208c-8.8 0-16-7.2-16-16V240c0-8.8 7.2-16 16-16h48V176z"/>
</symbol>

<symbol id="cloud-lightning" viewBox="0 0 512 512">
<path d="M0 224c0 53 43 96 96 96h47.2L290 202.5c17.6-14.1 42.6-14 60.2 .2s22.8 38.6 12.8 58.8L333.7 320H352h64c53 0 96-43 96-96s-43-96-96-96c-.5 0-1.1 0-1.6 0c1.1-5.2 1.6-10.5 1.6-16c0-44.2-35.8-80-80-80c-24.3 0-46.1 10.9-60.8 28C256.5 24.3 219.1 0 176 0C114.1 0 64 50.1 64 112c0 7.1 .7 14.1 1.9 20.8C27.6 145.4 0 181.5 0 224zm330.1 3.6c-5.8-4.7-14.2-4.7-20.1-.1l-160 128c-5.3 4.2-7.4 11.4-5.1 17.8s8.3 10.7 15.1 10.7h70.1L177.7 488.8c-3.4 6.7-1.6 14.9 4.3 19.6s14.2 4.7 20.1 .1l160-128c5.3-4.2 7.4-11.4 5.1-17.8s-8.3-10.7-15.1-10.7H281.9l52.4-104.8c3.4-6.7 1.6-14.9-4.2-19.6z"/>
</symbol>

<symbol id="poop" viewBox="0 0 512 512">
<path d="M254.4 6.6c3.5-4.3 9-6.5 14.5-5.7C315.8 7.2 352 47.4 352 96c0 11.2-1.9 22-5.5 32H352c35.3 0 64 28.7 64 64c0 19.1-8.4 36.3-21.7 48H408c39.8 0 72 32.2 72 72c0 23.2-11 43.8-28 57c34.1 5.7 60 35.3 60 71c0 39.8-32.2 72-72 72H72c-39.8 0-72-32.2-72-72c0-35.7 25.9-65.3 60-71c-17-13.2-28-33.8-28-57c0-39.8 32.2-72 72-72h13.7C104.4 228.3 96 211.1 96 192c0-35.3 28.7-64 64-64h16.2c44.1-.1 79.8-35.9 79.8-80c0-9.2-1.5-17.9-4.3-26.1c-1.8-5.2-.8-11.1 2.8-15.4z"/>
</symbol>

<symbol id="upload" viewBox="0 0 512 512">
<path d="M288 109.3V352c0 17.7-14.3 32-32 32s-32-14.3-32-32V109.3l-73.4 73.4c-12.5 12.5-32.8 12.5-45.3 0s-12.5-32.8 0-45.3l128-128c12.5-12.5 32.8-12.5 45.3 0l128 128c12.5 12.5 12.5 32.8 0 45.3s-32.8 12.5-45.3 0L288 109.3zM64 352H192c0 35.3 28.7 64 64 64s64-28.7 64-64H448c35.3 0 64 28.7 64 64v32c0 35.3-28.7 64-64 64H64c-35.3 0-64-28.7-64-64V416c0-35.3 28.7-64 64-64zM432 456a24 24 0 1 0 0-48 24 24 0 1 0 0 48z"/>
</symbol>

<symbol id="edit" viewBox="0 0 512 512">
<path d="M471.6 21.7c-21.9-21.9-57.3-21.9-79.2 0L362.3 51.7l97.9 97.9 30.1-30.1c21.9-21.9 21.9-57.3 0-79.2L471.6 21.7zm-299.2 220c-6.1 6.1-10.8 13.6-13.5 21.9l-29.6 88.8c-2.9 8.6-.6 18.1 5.8 24.6s15.9 8.7 24.6 5.8l88.8-29.6c8.2-2.7 15.7-7.4 21.9-13.5L437.7 172.3 339.7 74.3 172.4 241.7zM96 64C43 64 0 107 0 160V416c0 53 43 96 96 96H352c53 0 96-43 96-96V320c0-17.7-14.3-32-32-32s-32 14.3-32 32v96c0 17.7-14.3 32-32 32H96c-17.7 0-32-14.3-32-32V160c0-17.7 14.3-32 32-32h96c17.7 0 32-14.3 32-32s-14.3-32-32-32H96z"/>
</symbol>

<symbol id="save-data" viewBox="0 0 448 512">
<path d="M64 32C28.7 32 0 60.7 0 96V416c0 35.3 28.7 64 64 64H384c35.3 0 64-28.7 64-64V173.3c0-17-6.7-33.3-18.7-45.3L352 50.7C340 38.7 323.7 32 306.7 32H64zm0 96c0-17.7 14.3-32 32-32H288c17.7 0 32 14.3 32 32v64c0 17.7-14.3 32-32 32H96c-17.7 0-32-14.3-32-32V128zM224 288a64 64 0 1 1 0 128 64 64 0 1 1 0-128z"/>
</symbol>


<symbol  id="user" viewBox="0 0 448 512">
<path d="M224 256A128 128 0 1 0 224 0a128 128 0 1 0 0 256zm-45.7 48C79.8 304 0 383.8 0 482.3C0 498.7 13.3 512 29.7 512H418.3c16.4 0 29.7-13.3 29.7-29.7C448 383.8 368.2 304 269.7 304H178.3z"/>
</symbol>

<symbol id="user-added" viewBox="0 0 640 512">
<path d="M96 128a128 128 0 1 1 256 0A128 128 0 1 1 96 128zM0 482.3C0 383.8 79.8 304 178.3 304h91.4C368.2 304 448 383.8 448 482.3c0 16.4-13.3 29.7-29.7 29.7H29.7C13.3 512 0 498.7 0 482.3zM625 177L497 305c-9.4 9.4-24.6 9.4-33.9 0l-64-64c-9.4-9.4-9.4-24.6 0-33.9s24.6-9.4 33.9 0l47 47L591 143c9.4-9.4 24.6-9.4 33.9 0s9.4 24.6 0 33.9z"/>
</symbol>

<symbol id="user-add" viewBox="0 0 640 512">
<path d="M96 128a128 128 0 1 1 256 0A128 128 0 1 1 96 128zM0 482.3C0 383.8 79.8 304 178.3 304h91.4C368.2 304 448 383.8 448 482.3c0 16.4-13.3 29.7-29.7 29.7H29.7C13.3 512 0 498.7 0 482.3zM504 312V248H440c-13.3 0-24-10.7-24-24s10.7-24 24-24h64V136c0-13.3 10.7-24 24-24s24 10.7 24 24v64h64c13.3 0 24 10.7 24 24s-10.7 24-24 24H552v64c0 13.3-10.7 24-24 24s-24-10.7-24-24z"/>
</symbol>

<symbol id="user-delete" viewBox="0 0 640 512">
<path d="M96 128a128 128 0 1 1 256 0A128 128 0 1 1 96 128zM0 482.3C0 383.8 79.8 304 178.3 304h91.4C368.2 304 448 383.8 448 482.3c0 16.4-13.3 29.7-29.7 29.7H29.7C13.3 512 0 498.7 0 482.3zM472 200H616c13.3 0 24 10.7 24 24s-10.7 24-24 24H472c-13.3 0-24-10.7-24-24s10.7-24 24-24z"/>
</symbol>

<symbol id="user-pending" viewBox="0 0 640 512">
<path d="M224 0a128 128 0 1 1 0 256A128 128 0 1 1 224 0zM178.3 304h91.4c20.6 0 40.4 3.5 58.8 9.9C323 331 320 349.1 320 368c0 59.5 29.5 112.1 74.8 144H29.7C13.3 512 0 498.7 0 482.3C0 383.8 79.8 304 178.3 304zM352 368a144 144 0 1 1 288 0 144 144 0 1 1 -288 0zm144-80c-8.8 0-16 7.2-16 16v64c0 8.8 7.2 16 16 16h48c8.8 0 16-7.2 16-16s-7.2-16-16-16H512V304c0-8.8-7.2-16-16-16z"/>
</symbol>

<symbol id="moon" viewBox="0 0 16 16" >
  <path d="M6 .278a.768.768 0 0 1 .08.858 7.208 7.208 0 0 0-.878 3.46c0 4.021 3.278 7.277 7.318 7.277.527 0 1.04-.055 1.533-.16a.787.787 0 0 1 .81.316.733.733 0 0 1-.031.893A8.349 8.349 0 0 1 8.344 16C3.734 16 0 12.286 0 7.71 0 4.266 2.114 1.312 5.124.06A.752.752 0 0 1 6 .278"/>
</symbol>


<symbol id="sun" viewBox="0 0 16 16">
  <path d="M12 8a4 4 0 1 1-8 0 4 4 0 0 1 8 0M8 0a.5.5 0 0 1 .5.5v2a.5.5 0 0 1-1 0v-2A.5.5 0 0 1 8 0m0 13a.5.5 0 0 1 .5.5v2a.5.5 0 0 1-1 0v-2A.5.5 0 0 1 8 13m8-5a.5.5 0 0 1-.5.5h-2a.5.5 0 0 1 0-1h2a.5.5 0 0 1 .5.5M3 8a.5.5 0 0 1-.5.5h-2a.5.5 0 0 1 0-1h2A.5.5 0 0 1 3 8m10.657-5.657a.5.5 0 0 1 0 .707l-1.414 1.415a.5.5 0 1 1-.707-.708l1.414-1.414a.5.5 0 0 1 .707 0m-9.193 9.193a.5.5 0 0 1 0 .707L3.05 13.657a.5.5 0 0 1-.707-.707l1.414-1.414a.5.5 0 0 1 .707 0zm9.193 2.121a.5.5 0 0 1-.707 0l-1.414-1.414a.5.5 0 0 1 .707-.707l1.414 1.414a.5.5 0 0 1 0 .707M4.464 4.465a.5.5 0 0 1-.707 0L2.343 3.05a.5.5 0 1 1 .707-.707l1.414 1.414a.5.5 0 0 1 0 .708z"/>
</symbol>


<symbol id="github" viewBox="0 0 496 512">
<path d="M165.9 397.4c0 2-2.3 3.6-5.2 3.6-3.3 .3-5.6-1.3-5.6-3.6 0-2 2.3-3.6 5.2-3.6 3-.3 5.6 1.3 5.6 3.6zm-31.1-4.5c-.7 2 1.3 4.3 4.3 4.9 2.6 1 5.6 0 6.2-2s-1.3-4.3-4.3-5.2c-2.6-.7-5.5 .3-6.2 2.3zm44.2-1.7c-2.9 .7-4.9 2.6-4.6 4.9 .3 2 2.9 3.3 5.9 2.6 2.9-.7 4.9-2.6 4.6-4.6-.3-1.9-3-3.2-5.9-2.9zM244.8 8C106.1 8 0 113.3 0 252c0 110.9 69.8 205.8 169.5 239.2 12.8 2.3 17.3-5.6 17.3-12.1 0-6.2-.3-40.4-.3-61.4 0 0-70 15-84.7-29.8 0 0-11.4-29.1-27.8-36.6 0 0-22.9-15.7 1.6-15.4 0 0 24.9 2 38.6 25.8 21.9 38.6 58.6 27.5 72.9 20.9 2.3-16 8.8-27.1 16-33.7-55.9-6.2-112.3-14.3-112.3-110.5 0-27.5 7.6-41.3 23.6-58.9-2.6-6.5-11.1-33.3 2.6-67.9 20.9-6.5 69 27 69 27 20-5.6 41.5-8.5 62.8-8.5s42.8 2.9 62.8 8.5c0 0 48.1-33.6 69-27 13.7 34.7 5.2 61.4 2.6 67.9 16 17.7 25.8 31.5 25.8 58.9 0 96.5-58.9 104.2-114.8 110.5 9.2 7.9 17 22.9 17 46.4 0 33.7-.3 75.4-.3 83.6 0 6.5 4.6 14.4 17.3 12.1C428.2 457.8 496 362.9 496 252 496 113.3 383.5 8 244.8 8zM97.2 352.9c-1.3 1-1 3.3 .7 5.2 1.6 1.6 3.9 2.3 5.2 1 1.3-1 1-3.3-.7-5.2-1.6-1.6-3.9-2.3-5.2-1zm-10.8-8.1c-.7 1.3 .3 2.9 2.3 3.9 1.6 1 3.6 .7 4.3-.7 .7-1.3-.3-2.9-2.3-3.9-2-.6-3.6-.3-4.3 .7zm32.4 35.6c-1.6 1.3-1 4.3 1.3 6.2 2.3 2.3 5.2 2.6 6.5 1 1.3-1.3 .7-4.3-1.3-6.2-2.2-2.3-5.2-2.6-6.5-1zm-11.4-14.7c-1.6 1-1.6 3.6 0 5.9 1.6 2.3 4.3 3.3 5.6 2.3 1.6-1.3 1.6-3.9 0-6.2-1.4-2.3-4-3.3-5.6-2z"/>
</symbol>

<symbol>

</symbol>
</svg>

